<?xml version="1.0" encoding="UTF-8"?>
<svg version="1.1" xmlns="http://www.w3.org/2000/svg" width="500" height="358">
<path d="M0 0 C1.14592621 -0.00861557 2.29185242 -0.01723114 3.47250366 -0.02610779 C7.23914544 -0.04870528 11.00503946 -0.0420397 14.77172852 -0.03295898 C17.40292073 -0.0381973 20.03411107 -0.04447454 22.66529846 -0.05174255 C28.17195969 -0.06356176 33.67841013 -0.05793306 39.18505859 -0.04296875 C45.5285737 -0.02605191 51.8714004 -0.04188632 58.21484035 -0.07419163 C64.34502738 -0.10421492 70.47490183 -0.10605025 76.60515022 -0.09669304 C79.20097816 -0.09587513 81.79682061 -0.1027076 84.39260674 -0.11746407 C88.02786712 -0.13496282 91.66167204 -0.12032025 95.296875 -0.09765625 C96.35952072 -0.10934845 97.42216644 -0.12104065 98.51701355 -0.13308716 C105.66644208 -0.04280135 111.28212387 1.40920595 117.21313477 5.53344727 C121.16323686 9.87613749 123.00245513 14.4395006 123.34594727 20.29907227 C123.03214317 25.57836462 121.23423314 29.77201985 117.52563477 33.53344727 C116.76250977 34.19344727 115.99938477 34.85344727 115.21313477 35.53344727 C116.65628657 39.92623249 118.11558615 44.3073554 119.71313477 48.64672852 C128.52792279 73.02738158 130.94842881 101.22437464 120.21313477 125.53344727 C115.98507698 134.36819488 110.78948633 139.96115783 101.58813477 143.53344727 C97.52467817 144.71541657 95.03734023 144.57895252 91.21313477 142.53344727 C87.56501859 139.69602358 86.41692844 136.94735742 85.21313477 132.53344727 C85.72116245 136.90248535 86.55587529 139.99043464 89.21313477 143.53344727 C92.5386606 145.70292123 95.29638673 145.77480255 99.21313477 145.72094727 C100.24438477 145.71450195 101.27563477 145.70805664 102.33813477 145.70141602 C104.79382159 145.55794518 106.86821232 145.23805137 109.21313477 144.53344727 C108.72223666 148.9088434 105.85985714 151.71804123 103.08813477 154.90844727 C102.5918457 155.48626953 102.09555664 156.0640918 101.58422852 156.65942383 C92.88268533 166.64359708 92.88268533 166.64359708 87.21313477 168.53344727 C81.26870605 168.91274659 77.49061561 168.17959946 71.96313477 165.72094727 C56.07737375 158.96805972 43.58334055 158.14971181 27.21313477 163.53344727 C24.43451163 164.73264251 21.87256238 166.07828876 19.21313477 167.53344727 C14.00499783 169.10727791 9.18761634 169.49968293 4.27563477 167.09594727 C-2.25466213 161.63182129 -9.79780611 155.19937828 -13.78686523 147.53344727 C-13.45686523 146.54344727 -13.12686523 145.55344727 -12.78686523 144.53344727 C-11.79686523 144.86344727 -10.80686523 145.19344727 -9.78686523 145.53344727 C-7.83211514 145.67824357 -5.87175144 145.75412229 -3.91186523 145.78344727 C-2.88319336 145.80922852 -1.85452148 145.83500977 -0.79467773 145.86157227 C2.67545996 145.48301179 4.4673812 144.66849907 7.21313477 142.53344727 C8.42588592 140.64164993 8.42588592 140.64164993 9.02563477 138.53344727 C9.25895508 137.85282227 9.49227539 137.17219727 9.73266602 136.47094727 C10.33348149 134.38084425 10.33348149 134.38084425 10.21313477 131.53344727 C9.87282227 133.11125977 9.87282227 133.11125977 9.52563477 134.72094727 C8.30426187 138.80880756 6.81080577 141.06004845 3.21313477 143.53344727 C-2.45950946 144.86344556 -6.9930162 143.8102269 -12.03686523 141.03344727 C-16.75661231 137.8820174 -19.86385848 134.36195842 -22.78686523 129.53344727 C-23.15295898 128.96368164 -23.51905273 128.39391602 -23.89624023 127.80688477 C-35.46448 107.6069584 -33.50845098 80.11860553 -27.78686523 58.53344727 C-26.01232975 52.25674796 -24.08248736 46.06456983 -21.10327148 40.24438477 C-19.51495963 37.71164723 -19.51495963 37.71164723 -20.28686523 35.53344727 C-21.86264653 33.3424855 -21.86264653 33.3424855 -24.34936523 30.90844727 C-27.75049318 26.93375632 -27.92412462 22.61204446 -27.78686523 17.53344727 C-26.89228662 12.16597559 -24.97149146 8.07029887 -20.78686523 4.53344727 C-14.06580589 0.40530424 -7.72858639 -0.04737226 0 0 Z M85.21313477 113.53344727 C86.21313477 115.53344727 86.21313477 115.53344727 86.21313477 115.53344727 Z M9.21313477 115.53344727 C10.21313477 118.53344727 10.21313477 118.53344727 10.21313477 118.53344727 Z " fill="#F6C724" transform="translate(196.786865234375,56.466552734375)"/>
<path d="M0 0 C4.01251799 3.19467993 6.94928313 6.71629466 7.96484375 11.83984375 C9.15881004 25.2929851 9.15881004 25.2929851 4.96484375 30.83984375 C0.47868886 35.31539307 -2.94085327 37.97226953 -9.47265625 38.02734375 C-10.61541016 38.04861328 -10.61541016 38.04861328 -11.78125 38.0703125 C-14.03515625 37.83984375 -14.03515625 37.83984375 -18.03515625 35.83984375 C-18.36515625 41.11984375 -18.69515625 46.39984375 -19.03515625 51.83984375 C-26.75 51.9375 -26.75 51.9375 -29.03515625 51.83984375 C-30.03515625 50.83984375 -30.03515625 50.83984375 -30.14868164 46.87084961 C-30.14852245 45.09878768 -30.1428241 43.32672115 -30.1328125 41.5546875 C-30.13139755 40.62386856 -30.1299826 39.69304962 -30.12852478 38.73402405 C-30.12290797 35.74843184 -30.11035265 32.76291346 -30.09765625 29.77734375 C-30.09264341 27.75846462 -30.08808013 25.73958432 -30.08398438 23.72070312 C-30.07293308 18.76038803 -30.0556572 13.80012843 -30.03515625 8.83984375 C-32.67515625 8.83984375 -35.31515625 8.83984375 -38.03515625 8.83984375 C-38.27516357 9.70077637 -38.27516357 9.70077637 -38.52001953 10.57910156 C-40.58729814 17.74850904 -43.15872249 24.65755267 -45.91015625 31.58984375 C-46.33167969 32.68683594 -46.75320313 33.78382813 -47.1875 34.9140625 C-52.05477325 47.19388034 -52.05477325 47.19388034 -58.07421875 51.1953125 C-63.08657262 52.84279933 -67.80333216 52.35850653 -72.59765625 50.33984375 C-73.40203125 49.84484375 -74.20640625 49.34984375 -75.03515625 48.83984375 C-74.37614871 45.76447521 -73.49647842 43.76248809 -72.03515625 40.83984375 C-69.06515625 41.16984375 -66.09515625 41.49984375 -63.03515625 41.83984375 C-61.15162101 39.87719055 -61.15162101 39.87719055 -60.03515625 36.83984375 C-62.46996134 27.73699291 -66.88151214 19.38475676 -70.91601562 10.90625 C-71.44388672 9.78347656 -71.97175781 8.66070312 -72.515625 7.50390625 C-73.24108521 5.97950928 -73.24108521 5.97950928 -73.98120117 4.42431641 C-75.03515625 1.83984375 -75.03515625 1.83984375 -75.03515625 -1.16015625 C-73.4533601 -1.26882927 -71.86938472 -1.34605452 -70.28515625 -1.41015625 C-69.4034375 -1.4565625 -68.52171875 -1.50296875 -67.61328125 -1.55078125 C-64.1057086 -1.01933085 -63.17912232 0.03035488 -61.03515625 2.83984375 C-59.82844185 5.36674799 -58.77054001 7.7956015 -57.78515625 10.40234375 C-57.51703125 11.07458984 -57.24890625 11.74683594 -56.97265625 12.43945312 C-55.82774902 15.3805796 -55.03515625 17.65739891 -55.03515625 20.83984375 C-54.37515625 20.83984375 -53.71515625 20.83984375 -53.03515625 20.83984375 C-52.865 20.15019531 -52.69484375 19.46054687 -52.51953125 18.75 C-48.54901947 3.35370697 -48.54901947 3.35370697 -44.03515625 -1.16015625 C-40.40871121 -1.61310958 -36.74913887 -1.48420427 -33.09765625 -1.47265625 C-32.08251953 -1.48876953 -31.06738281 -1.50488281 -30.02148438 -1.52148438 C-28.5606543 -1.52245117 -28.5606543 -1.52245117 -27.0703125 -1.5234375 C-25.73045288 -1.52790894 -25.73045288 -1.52790894 -24.36352539 -1.5324707 C-21.61784765 -1.09342713 -20.74704874 -0.29376314 -19.03515625 1.83984375 C-18.45765625 1.36546875 -17.88015625 0.89109375 -17.28515625 0.40234375 C-12.17385553 -3.14717064 -5.38418153 -3.0692935 0 0 Z M-18.03515625 11.83984375 C-19.78272508 15.33498142 -19.5972641 19.02645301 -19.03515625 22.83984375 C-17.69331019 25.69126663 -16.53749211 26.71829813 -14.03515625 28.83984375 C-11.03515625 29.75651042 -11.03515625 29.75651042 -8.03515625 28.83984375 C-4.93425185 27.15814728 -4.93425185 27.15814728 -3.03515625 23.83984375 C-2.02805837 18.42263177 -2.06930881 14.28861491 -5.16015625 9.65234375 C-10.55321111 6.25237438 -14.10542649 6.89129517 -18.03515625 11.83984375 Z " fill="#25282C" transform="translate(336.03515625,268.16015625)"/>
<path d="M0 0 C2.97 0 5.94 0 9 0 C11 2 11 2 11.22705078 3.97119141 C11.21134033 5.1494751 11.21134033 5.1494751 11.1953125 6.3515625 C11.19031738 7.11807129 11.18532227 7.88458008 11.18017578 8.67431641 C11.15286377 10.13490479 11.15286377 10.13490479 11.125 11.625 C11.08375 14.71875 11.0425 17.8125 11 21 C17.93 21 24.86 21 32 21 C31.88156073 15.2108763 31.88156073 15.2108763 31.72973633 9.42260742 C31.72224365 8.69920166 31.71475098 7.9757959 31.70703125 7.23046875 C31.6913208 6.49207764 31.67561035 5.75368652 31.65942383 4.99291992 C32 3 32 3 33.01831055 1.2355957 C35 0 35 0 43 0 C43 17.16 43 34.32 43 52 C39.37 52 35.74 52 32 52 C32 45.07 32 38.14 32 31 C25.07 31 18.14 31 11 31 C11 37.93 11 44.86 11 52 C7.37 52 3.74 52 0 52 C0 34.84 0 17.68 0 0 Z " fill="#26292D" transform="translate(85,253)"/>
<path d="M0 0 C6.94466397 3.50151124 11.98053709 8.69220984 14.44921875 16.109375 C15.60923827 24.0585614 14.15826207 30.58740701 9.44921875 37.109375 C4.48725108 42.31468011 0.44958661 43.4583481 -6.55078125 44.109375 C-6.78350813 40.04784334 -6.92532436 35.98802257 -7.05078125 31.921875 C-7.1178125 30.77138672 -7.18484375 29.62089844 -7.25390625 28.43554688 C-7.33019879 25.14543105 -7.31710097 22.31292212 -6.55078125 19.109375 C-4.6038405 17.14188676 -2.91712404 16.15864153 -0.38085938 15.07617188 C0.22306641 14.75712891 0.82699219 14.43808594 1.44921875 14.109375 C2.57866872 10.94476407 2.57866872 10.94476407 2.44921875 8.109375 C-1.28746012 5.61825575 -4.22949101 5.81324023 -8.55078125 5.859375 C-9.27523437 5.85164063 -9.9996875 5.84390625 -10.74609375 5.8359375 C-14.54466618 5.84995437 -16.31915209 5.95495556 -19.55078125 8.109375 C-19.13521708 12.95762368 -17.1762988 14.98974362 -13.55078125 18.109375 C-12.23078125 18.769375 -10.91078125 19.429375 -9.55078125 20.109375 C-9.55078125 28.029375 -9.55078125 35.949375 -9.55078125 44.109375 C-17.73026843 44.109375 -17.73026843 44.109375 -22.55078125 40.109375 C-28.85224411 33.62744065 -31.05948655 29.13595725 -31.04833984 19.89868164 C-30.83301823 13.50331994 -29.13530269 9.51051558 -24.55078125 5.109375 C-17.27342273 -1.08412161 -9.20669634 -3.21458923 0 0 Z " fill="#FBFAF6" transform="translate(252.55078125,99.890625)"/>
<path d="M0 0 C-0.66498383 4.38889325 -2.18757677 7.9811485 -4 12 C-3.34515625 12.08636719 -2.6903125 12.17273437 -2.015625 12.26171875 C7.71089071 13.75916255 16.33669765 17.42770154 25 22 C25 22.99 25 23.98 25 25 C0.58 25 -23.84 25 -49 25 C-48 22 -48 22 -45.76953125 20.53515625 C-28.63129973 12 -28.63129973 12 -20 12 C-20.34224609 11.09507813 -20.34224609 11.09507813 -20.69140625 10.171875 C-20.97886719 9.37265625 -21.26632813 8.5734375 -21.5625 7.75 C-21.85253906 6.96109375 -22.14257812 6.1721875 -22.44140625 5.359375 C-23.04522837 2.80896548 -22.8473932 1.44677771 -22 -1 C-13.76330394 -3.68953341 -7.98086729 -3.36036518 0 0 Z " fill="#F6C823" transform="translate(256,29)"/>
<path d="M0 0 C3.65667697 3.45244767 6.04300309 7.02361608 7 12 C7.20070794 19.01297171 5.77280744 24.72799586 1 30 C-5.51602298 34.92988581 -12.06957914 35.74958772 -20 35 C-26.698729 33.20528933 -30.53924043 28.83179901 -34 23 C-35.82511893 17.5246432 -35.82717072 12.12287937 -33.4375 6.8125 C-30.38366511 1.42527718 -26.33585194 -1.98632841 -20.6875 -4.4375 C-12.81152908 -5.63891929 -6.47513481 -4.69764682 0 0 Z M-23 10 C-24.53214888 13.06429776 -24.22938548 15.6165642 -24 19 C-22.73001681 21.85746217 -21.7161997 23.48137263 -19.1875 25.3125 C-16.17760008 26.25846855 -14.14801964 26.44072275 -11 26 C-7.47933882 23.94074535 -5.56544994 22.73718786 -4.296875 18.83984375 C-3.71250496 15.03508662 -3.72791045 12.63941045 -5.25 9.0625 C-7.99478822 5.82757103 -9.62920832 5.04186358 -13.875 4.5625 C-18.38223292 4.65380674 -20.22234734 6.4648057 -23 10 Z " fill="#25282C" transform="translate(382,271)"/>
<path d="M0 0 C4.70039377 4.05943098 9.28880575 8.11840385 9.98828125 14.57421875 C10.19437771 21.48387364 9.13017109 26.73552812 4.32421875 31.91015625 C-1.25033455 36.8509102 -6.31913084 37.78009934 -13.53125 37.625 C-19.94175978 37.03552784 -24.05519671 34.26893717 -28.25 29.375 C-32.33176174 23.66644916 -31.85749513 18.15156538 -31.25 11.375 C-29.56324823 5.91786192 -25.97403161 2.43898034 -21.25 -0.625 C-14.47027055 -3.70541649 -6.58497899 -3.2924895 0 0 Z M-18.1875 9.4375 C-20.64565865 12.93851384 -21.17392968 15.11506222 -21.25 19.375 C-20.46206191 22.76313378 -19.43336136 24.18654527 -17 26.6875 C-13.69146305 28.71773858 -12.0700098 28.93208476 -8.25 28.375 C-5.50960663 27.12936665 -3.7856132 26.06364555 -1.9375 23.6875 C-0.90741662 20.22267407 -0.6585278 16.92383321 -1.25 13.375 C-3.04363911 10.5649654 -4.26880935 8.86559532 -7.25 7.375 C-13.12637814 6.75717959 -13.12637814 6.75717959 -18.1875 9.4375 Z " fill="#25282C" transform="translate(165.25,268.625)"/>
<path d="M0 0 C3.62249769 3.01218558 6.83115499 5.77214557 7.71875 10.54296875 C7.71875 13.84296875 7.71875 17.14296875 7.71875 20.54296875 C-0.53125 20.54296875 -8.78125 20.54296875 -17.28125 20.54296875 C-14.17218133 26.39772161 -14.17218133 26.39772161 -11.1328125 27.453125 C-5.94067302 27.80837665 -2.86028416 27.33506275 1.71875 24.54296875 C2.37875 24.54296875 3.03875 24.54296875 3.71875 24.54296875 C6.79478687 28.64435124 6.79478687 28.64435124 6.546875 31.57421875 C5.44281492 34.19896535 4.36075626 34.65055121 1.78125 35.79296875 C-4.65295625 38.38097222 -10.32845424 38.34372692 -16.96875 36.54296875 C-22.06348426 33.46690278 -26.37353922 29.2661011 -28.28125 23.54296875 C-29.23041973 10.89345677 -29.23041973 10.89345677 -25.28125 5.54296875 C-18.68176231 -1.51694832 -8.87332465 -5.6673803 0 0 Z M-15.21875 8.91796875 C-17.38422026 11.11763137 -17.38422026 11.11763137 -17.28125 12.54296875 C-12.66125 12.54296875 -8.04125 12.54296875 -3.28125 12.54296875 C-3.94125 10.89296875 -4.60125 9.24296875 -5.28125 7.54296875 C-10.64427505 6.12408261 -10.64427505 6.12408261 -15.21875 8.91796875 Z " fill="#25282C" transform="translate(252.28125,268.45703125)"/>
<path d="M0 0 C3.93091938 4.02679546 3.68304603 7.05559091 3.66015625 12.48046875 C3.6587413 13.14210526 3.65732635 13.80374176 3.65586853 14.48542786 C3.65027996 16.59449828 3.63772965 18.70346177 3.625 20.8125 C3.61998352 22.24413909 3.61542087 23.67577985 3.61132812 25.10742188 C3.6003143 28.61331588 3.58305755 32.1191475 3.5625 35.625 C-2.4921875 35.8203125 -2.4921875 35.8203125 -4.4375 35.625 C-6.89816129 33.16433871 -6.71572548 32.36733541 -6.81640625 28.9765625 C-6.85056641 28.05359375 -6.88472656 27.130625 -6.91992188 26.1796875 C-6.94634766 25.21289062 -6.97277344 24.24609375 -7 23.25 C-7.06013237 21.34623471 -7.12380232 19.44257711 -7.19140625 17.5390625 C-7.21533447 16.6929541 -7.2392627 15.8468457 -7.26391602 14.97509766 C-7.42867171 12.74452333 -7.82323558 10.77074784 -8.4375 8.625 C-11.62873321 7.62204099 -13.0136278 7.43770763 -16.125 8.8125 C-19.16425403 11.19461802 -20.24336009 13.17474812 -20.75634766 17.00683594 C-20.78776855 17.86567383 -20.81918945 18.72451172 -20.8515625 19.609375 C-20.90957031 21.01123047 -20.90957031 21.01123047 -20.96875 22.44140625 C-21.01515625 23.89353516 -21.01515625 23.89353516 -21.0625 25.375 C-21.12050781 26.85033203 -21.12050781 26.85033203 -21.1796875 28.35546875 C-21.2737797 30.77834289 -21.35672152 33.20164545 -21.4375 35.625 C-25.0675 35.625 -28.6975 35.625 -32.4375 35.625 C-32.4375 23.085 -32.4375 10.545 -32.4375 -2.375 C-24.4375 -2.375 -24.4375 -2.375 -21.9375 -0.875 C-21.4425 -0.38 -20.9475 0.115 -20.4375 0.625 C-19.880625 0.150625 -19.32375 -0.32375 -18.75 -0.8125 C-12.99505854 -4.70097396 -5.40098001 -4.31039751 0 0 Z " fill="#25282C" transform="translate(213.4375,269.375)"/>
<path d="M0 0 C3.375 1.625 3.375 1.625 6 4 C6.94875 4.825 7.8975 5.65 8.875 6.5 C11.8771221 10.30851735 11.62998765 14.48527727 11.421875 19.15625 C10.6505944 24.35525259 8.20098943 26.9419855 4.375 30.3125 C-0.5088647 33.78261439 -5.1345128 33.6130594 -11 33 C-14.5 31.1875 -14.5 31.1875 -17 29 C-17.5775 28.505 -18.155 28.01 -18.75 27.5 C-22.33704311 23.19554826 -22.4248218 19.11941153 -22.31640625 13.69140625 C-21.7169643 8.59244941 -19.09341652 5.96324789 -15.375 2.6875 C-10.4803175 -0.79030072 -5.87599552 -0.59092873 0 0 Z " fill="#FDFBF7" transform="translate(283,73)"/>
<path d="M0 0 C5.5170945 2.12828314 9.50566663 5.59561102 12 11 C13.00505179 16.63247774 12.05710218 21.30746337 9.27734375 26.2734375 C6.19805986 30.43564998 1.83047023 32.55758192 -3.19921875 33.34375 C-8.44942425 33.67343323 -11.43078397 33.23152304 -15.5 29.75 C-19.80910258 25.61749998 -21.32236175 22.23021718 -21.5625 16.25 C-21.49078379 10.38361373 -19.92547574 7.59890042 -15.82421875 3.5234375 C-10.70633778 -0.75059586 -6.4630093 -0.85643702 0 0 Z " fill="#FBFAF6" transform="translate(216,73)"/>
<path d="M0 0 C2.57161458 0.03255208 5.14322917 0.06510417 7.71484375 0.09765625 C7.71484375 3.39765625 7.71484375 6.69765625 7.71484375 10.09765625 C10.35484375 10.09765625 12.99484375 10.09765625 15.71484375 10.09765625 C15.71484375 13.06765625 15.71484375 16.03765625 15.71484375 19.09765625 C13.07484375 19.09765625 10.43484375 19.09765625 7.71484375 19.09765625 C7.82845977 21.89021844 7.95520265 24.68109743 8.08984375 27.47265625 C8.12078125 28.26671875 8.15171875 29.06078125 8.18359375 29.87890625 C8.23300796 34.46433 8.23300796 34.46433 10.71484375 38.09765625 C12.70305688 38.49529888 14.70428714 38.83540974 16.71484375 39.09765625 C16.71484375 42.06765625 16.71484375 45.03765625 16.71484375 48.09765625 C11.13437487 49.67163465 6.79563969 48.62839491 1.71484375 46.09765625 C-1.34037031 43.04244219 -3.15807376 40.4313281 -3.39868164 36.01293945 C-3.39344482 35.23265381 -3.38820801 34.45236816 -3.3828125 33.6484375 C-3.37958984 32.80087891 -3.37636719 31.95332031 -3.37304688 31.08007812 C-3.36466797 30.19900391 -3.35628906 29.31792969 -3.34765625 28.41015625 C-3.34314453 27.51748047 -3.33863281 26.62480469 -3.33398438 25.70507812 C-3.32220608 23.50253638 -3.30575789 21.30013026 -3.28515625 19.09765625 C-4.93515625 19.09765625 -6.58515625 19.09765625 -8.28515625 19.09765625 C-8.28515625 16.45765625 -8.28515625 13.81765625 -8.28515625 11.09765625 C-6.63515625 10.76765625 -4.98515625 10.43765625 -3.28515625 10.09765625 C-3.29675781 9.45957031 -3.30835938 8.82148438 -3.3203125 8.1640625 C-3.32933594 7.33777344 -3.33835937 6.51148438 -3.34765625 5.66015625 C-3.35925781 4.83644531 -3.37085938 4.01273437 -3.3828125 3.1640625 C-3.24381204 0.22281267 -2.9444484 0.12583113 0 0 Z " fill="#24282D" transform="translate(398.28515625,256.90234375)"/>
<path d="M0 0 C0.71607422 -0.01611328 1.43214844 -0.03222656 2.16992188 -0.04882812 C6.42186425 -0.05276876 8.98976687 0.27185807 12.0625 3.3125 C11.80071412 7.15202622 11.51874385 8.85625615 8.75 11.625 C6.0625 13.3125 6.0625 13.3125 2.0625 14.3125 C2.0625 22.8925 2.0625 31.4725 2.0625 40.3125 C1.0725 40.3125 0.0825 40.3125 -0.9375 40.3125 C-0.93113525 39.57612305 -0.92477051 38.83974609 -0.91821289 38.08105469 C-0.90952177 34.74050581 -0.95416812 31.40272708 -1 28.0625 C-0.98904297 26.90363281 -0.97808594 25.74476563 -0.96679688 24.55078125 C-0.8232654 18.6348614 -0.8232654 18.6348614 -3.48779297 13.69116211 C-5.58709773 12.45218143 -5.58709773 12.45218143 -8.9375 11.3125 C-10.9375 9.375 -10.9375 9.375 -11.9375 7.3125 C-11.8125 4.6875 -11.8125 4.6875 -10.9375 2.3125 C-7.22185162 -0.16459892 -4.300079 -0.01924834 0 0 Z " fill="#2F3235" transform="translate(243.9375,104.6875)"/>
<path d="M0 0 C1.12948563 -0.00846954 2.25897125 -0.01693909 3.42268372 -0.02566528 C7.13932696 -0.0489776 10.85555494 -0.05005891 14.57226562 -0.04882812 C17.16483729 -0.05593213 19.75740738 -0.06363148 22.34997559 -0.07189941 C27.7768251 -0.08533028 33.20351329 -0.08710078 38.63037109 -0.08105469 C44.88811312 -0.07441093 51.14526617 -0.0973027 57.40288877 -0.13436842 C63.4438958 -0.16884165 69.48459131 -0.17539651 75.52571106 -0.17127991 C78.08691667 -0.17297113 80.64813005 -0.18261371 83.20927429 -0.20042419 C86.79233345 -0.22260383 90.37397618 -0.21291557 93.95703125 -0.1953125 C95.00973709 -0.20857574 96.06244293 -0.22183899 97.14704895 -0.23550415 C103.72635809 -0.16055063 108.47904664 0.93919812 113.47851562 5.41992188 C114.69726562 7.87695312 114.69726562 7.87695312 114.97851562 10.23242188 C115.09195313 11.02261719 115.20539063 11.8128125 115.32226562 12.62695312 C115.37382812 13.21863281 115.42539062 13.8103125 115.47851562 14.41992188 C114.85976563 13.58460937 114.85976563 13.58460937 114.22851562 12.73242188 C113.65101563 11.96929687 113.07351563 11.20617187 112.47851562 10.41992188 C111.55039062 9.12054688 111.55039062 9.12054688 110.60351562 7.79492188 C107.80801955 4.67054391 105.22146131 3.6094461 101.06118393 3.15706635 C100.21468403 3.15111702 99.36818413 3.14516769 98.49603271 3.13903809 C97.51770981 3.1276178 96.5393869 3.11619751 95.53141785 3.10443115 C93.93853691 3.10107758 93.93853691 3.10107758 92.31347656 3.09765625 C91.18603531 3.08772644 90.05859406 3.07779663 88.89698792 3.06756592 C85.16893059 3.03836786 81.44104348 3.02472628 77.71289062 3.01367188 C75.11842851 3.00216509 72.52396643 2.99064967 69.92950439 2.97912598 C65.18391809 2.96080215 60.43839964 2.9481965 55.69278407 2.94213247 C48.72585999 2.93317902 41.75972226 2.89811162 34.79303718 2.84013128 C28.74297725 2.79154195 22.69328692 2.77623688 16.643013 2.77278137 C14.07702606 2.76673765 11.51104206 2.75071189 8.9451828 2.72441101 C5.3498984 2.69018929 1.7565153 2.6940729 -1.83886719 2.70703125 C-2.89269089 2.68860168 -3.94651459 2.67017212 -5.03227234 2.65118408 C-12.2731747 2.73268287 -17.1491775 4.45961814 -22.52148438 9.41992188 C-24.45381329 11.9780639 -26.07680448 14.55960089 -27.52148438 17.41992188 C-28.52148438 14.41992188 -28.52148438 14.41992188 -26.89648438 10.98242188 C-20.69958522 0.97042494 -10.79592671 -0.03005453 0 0 Z " fill="#FCCE25" transform="translate(201.521484375,57.580078125)"/>
<path d="M0 0 C5.36170213 0.59574468 5.36170213 0.59574468 7.875 2.1875 C9.61514411 4.99106551 9.51732864 6.76669603 9 10 C6.9375 12.9375 6.9375 12.9375 4 15 C0.07841165 15.06761359 -2.03521652 14.90253938 -4.9375 12.1875 C-6 10 -6 10 -6 6 C-4.35 5.67 -2.7 5.34 -1 5 C-0.67 3.35 -0.34 1.7 0 0 Z " fill="#2F3236" transform="translate(276,82)"/>
<path d="M0 0 C3.37462715 0.54723683 5.08235 1.0549 8 3 C8.76955603 9.81606765 8.76955603 9.81606765 6.375 13.5 C3.27859404 15.45562482 1.60146865 15.60024477 -2 15 C-4.375 13.3125 -4.375 13.3125 -6 11 C-6.25 8.25 -6.25 8.25 -6 6 C-5.195625 5.7525 -4.39125 5.505 -3.5625 5.25 C-0.828919 4.27761141 -0.828919 4.27761141 -0.1875 1.875 C-0.125625 1.25625 -0.06375 0.6375 0 0 Z " fill="#2C2F33" transform="translate(210,82)"/>
<path d="M0 0 C3.5019499 0.28015599 3.92208046 0.74368436 6.125 3.25 C5.29355469 4.38888672 5.29355469 4.38888672 4.4453125 5.55078125 C3.35863281 7.04158203 3.35863281 7.04158203 2.25 8.5625 C1.53070313 9.54863281 0.81140625 10.53476563 0.0703125 11.55078125 C-1.2805935 13.42523115 -2.59335329 15.32752993 -3.875 17.25 C-4.535 17.25 -5.195 17.25 -5.875 17.25 C-7.91731709 14.57927766 -8.82079843 12.57520944 -9.375 9.25 C-8.70725814 5.24354883 -6.90635163 3.8377392 -3.875 1.25 C-2.875 0.25 -2.875 0.25 0 0 Z " fill="#2F302C" transform="translate(187.875,66.75)"/>
<path d="M0 0 C4.09014276 -0.74366232 5.77748563 -0.13186037 9.375 2 C12.43861829 5.50127805 12.43861829 5.50127805 12.625 9.0625 C12 13 12 13 8 17 C4.7 12.38 1.4 7.76 -2 3 C-1.34 2.01 -0.68 1.02 0 0 Z " fill="#2A2C2C" transform="translate(297,67)"/>
<path d="M0 0 C0.66 0 1.32 0 2 0 C2.815393 3.54100697 3.62679621 7.08291677 4.4375 10.625 C4.66759766 11.62402344 4.89769531 12.62304688 5.13476562 13.65234375 C6.22398505 18.41965198 7.28133724 23.15935198 8 28 C5.65941363 25.87219421 4.29299694 23.88437779 3 21 C2.67 21.99 2.34 22.98 2 24 C1.01 23.67 0.02 23.34 -1 23 C-2.34256953 18.68964518 -3 15.52218352 -3 11 C-2.34 10.67 -1.68 10.34 -1 10 C-0.53248212 7.64400765 -0.53248212 7.64400765 -0.375 4.9375 C-0.30023438 4.01839844 -0.22546875 3.09929687 -0.1484375 2.15234375 C-0.09945312 1.44207031 -0.05046875 0.73179687 0 0 Z " fill="#F8CD39" transform="translate(170,151)"/>
<path d="M0 0 C0.66 0 1.32 0 2 0 C2 0.66 2 1.32 2 2 C24.77 2 47.54 2 71 2 C71 1.34 71 0.68 71 0 C71.66 0 72.32 0 73 0 C73 0.99 73 1.98 73 3 C48.58 3 24.16 3 -1 3 C-0.67 2.01 -0.34 1.02 0 0 Z " fill="#F5C620" transform="translate(208,51)"/>
<path d="M0 0 C2.41858656 4.49984564 3.46347319 9.19402018 4.6875 14.125 C4.92533203 15.04410156 5.16316406 15.96320313 5.40820312 16.91015625 C5.62798828 17.78800781 5.84777344 18.66585937 6.07421875 19.5703125 C6.27619873 20.37227051 6.47817871 21.17422852 6.6862793 22.00048828 C7 24 7 24 6 26 C0.85895771 18.10842809 -0.46368819 9.27376375 0 0 Z " fill="#FCF2D0" transform="translate(171,153)"/>
<path d="M0 0 C0.99 0.33 1.98 0.66 3 1 C2.09507812 1.63615234 2.09507812 1.63615234 1.171875 2.28515625 C-4.00187739 6.08202292 -7.26676497 9.17702103 -10 15 C-11 12 -11 12 -9.375 8.5625 C-7.00116438 4.66380469 -4.10017216 2.05008608 0 0 Z " fill="#FCF1CB" transform="translate(184,60)"/>
<path d="M0 0 C0.763125 0.845625 1.52625 1.69125 2.3125 2.5625 C4.63899008 4.55823607 5.73567693 4.98984767 8.84765625 5.109375 C11.59249909 4.84020331 14.28591578 4.48776247 17 4 C13.92603295 6.70309399 12.01786274 7.39250711 7.9375 7.3125 C6.65166016 7.30669922 6.65166016 7.30669922 5.33984375 7.30078125 C3 7 3 7 0 5 C-0.1875 2.375 -0.1875 2.375 0 0 Z " fill="#FBD022" transform="translate(285,192)"/>
<path d="M0 0 C-0.3125 1.875 -0.3125 1.875 -1 4 C-1.99 4.66 -2.98 5.32 -4 6 C-4 5.34 -4 4.68 -4 4 C-4.61488281 4.02320313 -5.22976563 4.04640625 -5.86328125 4.0703125 C-7.07564453 4.09738281 -7.07564453 4.09738281 -8.3125 4.125 C-9.11300781 4.14820313 -9.91351563 4.17140625 -10.73828125 4.1953125 C-13 4 -13 4 -16 2 C-15.15695312 1.93941406 -14.31390625 1.87882813 -13.4453125 1.81640625 C-12.34960938 1.73261719 -11.25390625 1.64882812 -10.125 1.5625 C-9.03445313 1.48128906 -7.94390625 1.40007812 -6.8203125 1.31640625 C-4.26398303 1.02961583 -2.50524575 0 0 0 Z " fill="#F1C521" transform="translate(306,201)"/>
<path d="M0 0 C1.26977059 3.80931176 0.52074507 5.81618993 -0.4375 9.6875 C-0.86869141 11.45673828 -0.86869141 11.45673828 -1.30859375 13.26171875 C-1.65083984 14.61716797 -1.65083984 14.61716797 -2 16 C-2.33 16 -2.66 16 -3 16 C-3.32712342 9.86946489 -3.39366878 5.37330889 0 0 Z " fill="#FCF2CE" transform="translate(291,158)"/>
<path d="M0 0 C1.1919204 3.57576119 0.74829813 4.29182952 -0.75 7.625 C-1.09546875 8.42164063 -1.4409375 9.21828125 -1.796875 10.0390625 C-3 12 -3 12 -6 13 C-5.01 9.7 -4.02 6.4 -3 3 C-2.34 3 -1.68 3 -1 3 C-0.67 2.01 -0.34 1.02 0 0 Z " fill="#E8C421" transform="translate(255,29)"/>
<path d="M0 0 C0.66 0.33 1.32 0.66 2 1 C2.125 3.875 2.125 3.875 2 7 C1.34 7.66 0.68 8.32 0 9 C-0.87890625 2.84765625 -0.87890625 2.84765625 -1 1 C-0.67 0.67 -0.34 0.34 0 0 Z " fill="#F7CA24" transform="translate(169,165)"/>
</svg>
